<svg width="200" height="200" viewBox="0 0 200 200" fill="none" xmlns="http://www.w3.org/2000/svg">
<path d="M200 0H0V200H200V0Z" fill="white"/>
<path d="M16.2162 10.8108H10.8108V16.2162H16.2162V10.8108Z" fill="black"/>
<path d="M21.6217 10.8108H16.2163V16.2162H21.6217V10.8108Z" fill="black"/>
<path d="M27.027 10.8108H21.6216V16.2162H27.027V10.8108Z" fill="black"/>
<path d="M32.4325 10.8108H27.0271V16.2162H32.4325V10.8108Z" fill="black"/>
<path d="M37.8378 10.8108H32.4324V16.2162H37.8378V10.8108Z" fill="black"/>
<path d="M43.2433 10.8108H37.8379V16.2162H43.2433V10.8108Z" fill="black"/>
<path d="M48.6486 10.8108H43.2432V16.2162H48.6486V10.8108Z" fill="black"/>
<path d="M64.8649 10.8108H59.4595V16.2162H64.8649V10.8108Z" fill="black"/>
<path d="M70.2702 10.8108H64.8647V16.2162H70.2702V10.8108Z" fill="black"/>
<path d="M75.6757 10.8108H70.2703V16.2162H75.6757V10.8108Z" fill="black"/>
<path d="M91.892 10.8108H86.4866V16.2162H91.892V10.8108Z" fill="black"/>
<path d="M102.703 10.8108H97.2974V16.2162H102.703V10.8108Z" fill="black"/>
<path d="M113.514 10.8108H108.108V16.2162H113.514V10.8108Z" fill="black"/>
<path d="M118.919 10.8108H113.513V16.2162H118.919V10.8108Z" fill="black"/>
<path d="M124.324 10.8108H118.919V16.2162H124.324V10.8108Z" fill="black"/>
<path d="M135.135 10.8108H129.73V16.2162H135.135V10.8108Z" fill="black"/>
<path d="M140.54 10.8108H135.135V16.2162H140.54V10.8108Z" fill="black"/>
<path d="M156.757 10.8108H151.351V16.2162H156.757V10.8108Z" fill="black"/>
<path d="M162.162 10.8108H156.757V16.2162H162.162V10.8108Z" fill="black"/>
<path d="M167.568 10.8108H162.162V16.2162H167.568V10.8108Z" fill="black"/>
<path d="M172.973 10.8108H167.568V16.2162H172.973V10.8108Z" fill="black"/>
<path d="M178.378 10.8108H172.973V16.2162H178.378V10.8108Z" fill="black"/>
<path d="M183.784 10.8108H178.378V16.2162H183.784V10.8108Z" fill="black"/>
<path d="M189.189 10.8108H183.784V16.2162H189.189V10.8108Z" fill="black"/>
<path d="M16.2162 16.2162H10.8108V21.6216H16.2162V16.2162Z" fill="black"/>
<path d="M48.6486 16.2162H43.2432V21.6216H48.6486V16.2162Z" fill="black"/>
<path d="M59.4594 16.2162H54.054V21.6216H59.4594V16.2162Z" fill="black"/>
<path d="M64.8649 16.2162H59.4595V21.6216H64.8649V16.2162Z" fill="black"/>
<path d="M81.0812 16.2162H75.6758V21.6216H81.0812V16.2162Z" fill="black"/>
<path d="M86.4865 16.2162H81.0811V21.6216H86.4865V16.2162Z" fill="black"/>
<path d="M97.2972 16.2162H91.8918V21.6216H97.2972V16.2162Z" fill="black"/>
<path d="M113.514 16.2162H108.108V21.6216H113.514V16.2162Z" fill="black"/>
<path d="M124.324 16.2162H118.919V21.6216H124.324V16.2162Z" fill="black"/>
<path d="M129.73 16.2162H124.324V21.6216H129.73V16.2162Z" fill="black"/>
<path d="M145.946 16.2162H140.541V21.6216H145.946V16.2162Z" fill="black"/>
<path d="M156.757 16.2162H151.351V21.6216H156.757V16.2162Z" fill="black"/>
<path d="M189.189 16.2162H183.784V21.6216H189.189V16.2162Z" fill="black"/>
<path d="M16.2162 21.6216H10.8108V27.027H16.2162V21.6216Z" fill="black"/>
<path d="M27.027 21.6216H21.6216V27.027H27.027V21.6216Z" fill="black"/>
<path d="M32.4325 21.6216H27.0271V27.027H32.4325V21.6216Z" fill="black"/>
<path d="M37.8378 21.6216H32.4324V27.027H37.8378V21.6216Z" fill="black"/>
<path d="M48.6486 21.6216H43.2432V27.027H48.6486V21.6216Z" fill="black"/>
<path d="M64.8649 21.6216H59.4595V27.027H64.8649V21.6216Z" fill="black"/>
<path d="M81.0812 21.6216H75.6758V27.027H81.0812V21.6216Z" fill="black"/>
<path d="M97.2972 21.6216H91.8918V27.027H97.2972V21.6216Z" fill="black"/>
<path d="M124.324 21.6216H118.919V27.027H124.324V21.6216Z" fill="black"/>
<path d="M129.73 21.6216H124.324V27.027H129.73V21.6216Z" fill="black"/>
<path d="M145.946 21.6216H140.541V27.027H145.946V21.6216Z" fill="black"/>
<path d="M156.757 21.6216H151.351V27.027H156.757V21.6216Z" fill="black"/>
<path d="M167.568 21.6216H162.162V27.027H167.568V21.6216Z" fill="black"/>
<path d="M172.973 21.6216H167.568V27.027H172.973V21.6216Z" fill="black"/>
<path d="M178.378 21.6216H172.973V27.027H178.378V21.6216Z" fill="black"/>
<path d="M189.189 21.6216H183.784V27.027H189.189V21.6216Z" fill="black"/>
<path d="M16.2162 27.027H10.8108V32.4324H16.2162V27.027Z" fill="black"/>
<path d="M27.027 27.027H21.6216V32.4324H27.027V27.027Z" fill="black"/>
<path d="M32.4325 27.027H27.0271V32.4324H32.4325V27.027Z" fill="black"/>
<path d="M37.8378 27.027H32.4324V32.4324H37.8378V27.027Z" fill="black"/>
<path d="M48.6486 27.027H43.2432V32.4324H48.6486V27.027Z" fill="black"/>
<path d="M59.4594 27.027H54.054V32.4324H59.4594V27.027Z" fill="black"/>
<path d="M70.2702 27.027H64.8647V32.4324H70.2702V27.027Z" fill="black"/>
<path d="M86.4865 27.027H81.0811V32.4324H86.4865V27.027Z" fill="black"/>
<path d="M91.892 27.027H86.4866V32.4324H91.892V27.027Z" fill="black"/>
<path d="M97.2972 27.027H91.8918V32.4324H97.2972V27.027Z" fill="black"/>
<path d="M102.703 27.027H97.2974V32.4324H102.703V27.027Z" fill="black"/>
<path d="M108.108 27.027H102.703V32.4324H108.108V27.027Z" fill="black"/>
<path d="M118.919 27.027H113.513V32.4324H118.919V27.027Z" fill="black"/>
<path d="M135.135 27.027H129.73V32.4324H135.135V27.027Z" fill="black"/>
<path d="M156.757 27.027H151.351V32.4324H156.757V27.027Z" fill="black"/>
<path d="M167.568 27.027H162.162V32.4324H167.568V27.027Z" fill="black"/>
<path d="M172.973 27.027H167.568V32.4324H172.973V27.027Z" fill="black"/>
<path d="M178.378 27.027H172.973V32.4324H178.378V27.027Z" fill="black"/>
<path d="M189.189 27.027H183.784V32.4324H189.189V27.027Z" fill="black"/>
<path d="M16.2162 32.4324H10.8108V37.8378H16.2162V32.4324Z" fill="black"/>
<path d="M27.027 32.4324H21.6216V37.8378H27.027V32.4324Z" fill="black"/>
<path d="M32.4325 32.4324H27.0271V37.8378H32.4325V32.4324Z" fill="black"/>
<path d="M37.8378 32.4324H32.4324V37.8378H37.8378V32.4324Z" fill="black"/>
<path d="M48.6486 32.4324H43.2432V37.8378H48.6486V32.4324Z" fill="black"/>
<path d="M75.6757 32.4324H70.2703V37.8378H75.6757V32.4324Z" fill="black"/>
<path d="M86.4865 32.4324H81.0811V37.8378H86.4865V32.4324Z" fill="black"/>
<path d="M102.703 32.4324H97.2974V37.8378H102.703V32.4324Z" fill="black"/>
<path d="M118.919 32.4324H113.513V37.8378H118.919V32.4324Z" fill="black"/>
<path d="M124.324 32.4324H118.919V37.8378H124.324V32.4324Z" fill="black"/>
<path d="M129.73 32.4324H124.324V37.8378H129.73V32.4324Z" fill="black"/>
<path d="M140.54 32.4324H135.135V37.8378H140.54V32.4324Z" fill="black"/>
<path d="M145.946 32.4324H140.541V37.8378H145.946V32.4324Z" fill="black"/>
<path d="M156.757 32.4324H151.351V37.8378H156.757V32.4324Z" fill="black"/>
<path d="M167.568 32.4324H162.162V37.8378H167.568V32.4324Z" fill="black"/>
<path d="M172.973 32.4324H167.568V37.8378H172.973V32.4324Z" fill="black"/>
<path d="M178.378 32.4324H172.973V37.8378H178.378V32.4324Z" fill="black"/>
<path d="M189.189 32.4324H183.784V37.8378H189.189V32.4324Z" fill="black"/>
<path d="M16.2162 37.8378H10.8108V43.2432H16.2162V37.8378Z" fill="black"/>
<path d="M48.6486 37.8378H43.2432V43.2432H48.6486V37.8378Z" fill="black"/>
<path d="M59.4594 37.8378H54.054V43.2432H59.4594V37.8378Z" fill="black"/>
<path d="M64.8649 37.8378H59.4595V43.2432H64.8649V37.8378Z" fill="black"/>
<path d="M70.2702 37.8378H64.8647V43.2432H70.2702V37.8378Z" fill="black"/>
<path d="M97.2972 37.8378H91.8918V43.2432H97.2972V37.8378Z" fill="black"/>
<path d="M102.703 37.8378H97.2974V43.2432H102.703V37.8378Z" fill="black"/>
<path d="M113.514 37.8378H108.108V43.2432H113.514V37.8378Z" fill="black"/>
<path d="M124.324 37.8378H118.919V43.2432H124.324V37.8378Z" fill="black"/>
<path d="M129.73 37.8378H124.324V43.2432H129.73V37.8378Z" fill="black"/>
<path d="M135.135 37.8378H129.73V43.2432H135.135V37.8378Z" fill="black"/>
<path d="M145.946 37.8378H140.541V43.2432H145.946V37.8378Z" fill="black"/>
<path d="M156.757 37.8378H151.351V43.2432H156.757V37.8378Z" fill="black"/>
<path d="M189.189 37.8378H183.784V43.2432H189.189V37.8378Z" fill="black"/>
<path d="M16.2162 43.2432H10.8108V48.6486H16.2162V43.2432Z" fill="black"/>
<path d="M21.6217 43.2432H16.2163V48.6486H21.6217V43.2432Z" fill="black"/>
<path d="M27.027 43.2432H21.6216V48.6486H27.027V43.2432Z" fill="black"/>
<path d="M32.4325 43.2432H27.0271V48.6486H32.4325V43.2432Z" fill="black"/>
<path d="M37.8378 43.2432H32.4324V48.6486H37.8378V43.2432Z" fill="black"/>
<path d="M43.2433 43.2432H37.8379V48.6486H43.2433V43.2432Z" fill="black"/>
<path d="M48.6486 43.2432H43.2432V48.6486H48.6486V43.2432Z" fill="black"/>
<path d="M59.4594 43.2432H54.054V48.6486H59.4594V43.2432Z" fill="black"/>
<path d="M70.2702 43.2432H64.8647V48.6486H70.2702V43.2432Z" fill="black"/>
<path d="M81.0812 43.2432H75.6758V48.6486H81.0812V43.2432Z" fill="black"/>
<path d="M91.892 43.2432H86.4866V48.6486H91.892V43.2432Z" fill="black"/>
<path d="M102.703 43.2432H97.2974V48.6486H102.703V43.2432Z" fill="black"/>
<path d="M113.514 43.2432H108.108V48.6486H113.514V43.2432Z" fill="black"/>
<path d="M124.324 43.2432H118.919V48.6486H124.324V43.2432Z" fill="black"/>
<path d="M135.135 43.2432H129.73V48.6486H135.135V43.2432Z" fill="black"/>
<path d="M145.946 43.2432H140.541V48.6486H145.946V43.2432Z" fill="black"/>
<path d="M156.757 43.2432H151.351V48.6486H156.757V43.2432Z" fill="black"/>
<path d="M162.162 43.2432H156.757V48.6486H162.162V43.2432Z" fill="black"/>
<path d="M167.568 43.2432H162.162V48.6486H167.568V43.2432Z" fill="black"/>
<path d="M172.973 43.2432H167.568V48.6486H172.973V43.2432Z" fill="black"/>
<path d="M178.378 43.2432H172.973V48.6486H178.378V43.2432Z" fill="black"/>
<path d="M183.784 43.2432H178.378V48.6486H183.784V43.2432Z" fill="black"/>
<path d="M189.189 43.2432H183.784V48.6486H189.189V43.2432Z" fill="black"/>
<path d="M64.8649 48.6486H59.4595V54.054H64.8649V48.6486Z" fill="black"/>
<path d="M81.0812 48.6486H75.6758V54.054H81.0812V48.6486Z" fill="black"/>
<path d="M91.892 48.6486H86.4866V54.054H91.892V48.6486Z" fill="black"/>
<path d="M97.2972 48.6486H91.8918V54.054H97.2972V48.6486Z" fill="black"/>
<path d="M102.703 48.6486H97.2974V54.054H102.703V48.6486Z" fill="black"/>
<path d="M113.514 48.6486H108.108V54.054H113.514V48.6486Z" fill="black"/>
<path d="M129.73 48.6486H124.324V54.054H129.73V48.6486Z" fill="black"/>
<path d="M145.946 48.6486H140.541V54.054H145.946V48.6486Z" fill="black"/>
<path d="M16.2162 54.054H10.8108V59.4594H16.2162V54.054Z" fill="black"/>
<path d="M21.6217 54.054H16.2163V59.4594H21.6217V54.054Z" fill="black"/>
<path d="M27.027 54.054H21.6216V59.4594H27.027V54.054Z" fill="black"/>
<path d="M32.4325 54.054H27.0271V59.4594H32.4325V54.054Z" fill="black"/>
<path d="M37.8378 54.054H32.4324V59.4594H37.8378V54.054Z" fill="black"/>
<path d="M48.6486 54.054H43.2432V59.4594H48.6486V54.054Z" fill="black"/>
<path d="M54.0541 54.054H48.6487V59.4594H54.0541V54.054Z" fill="black"/>
<path d="M59.4594 54.054H54.054V59.4594H59.4594V54.054Z" fill="black"/>
<path d="M70.2702 54.054H64.8647V59.4594H70.2702V54.054Z" fill="black"/>
<path d="M81.0812 54.054H75.6758V59.4594H81.0812V54.054Z" fill="black"/>
<path d="M86.4865 54.054H81.0811V59.4594H86.4865V54.054Z" fill="black"/>
<path d="M91.892 54.054H86.4866V59.4594H91.892V54.054Z" fill="black"/>
<path d="M102.703 54.054H97.2974V59.4594H102.703V54.054Z" fill="black"/>
<path d="M108.108 54.054H102.703V59.4594H108.108V54.054Z" fill="black"/>
<path d="M140.54 54.054H135.135V59.4594H140.54V54.054Z" fill="black"/>
<path d="M151.351 54.054H145.946V59.4594H151.351V54.054Z" fill="black"/>
<path d="M162.162 54.054H156.757V59.4594H162.162V54.054Z" fill="black"/>
<path d="M172.973 54.054H167.568V59.4594H172.973V54.054Z" fill="black"/>
<path d="M183.784 54.054H178.378V59.4594H183.784V54.054Z" fill="black"/>
<path d="M32.4325 59.4595H27.0271V64.8649H32.4325V59.4595Z" fill="black"/>
<path d="M54.0541 59.4595H48.6487V64.8649H54.0541V59.4595Z" fill="black"/>
<path d="M59.4594 59.4595H54.054V64.8649H59.4594V59.4595Z" fill="black"/>
<path d="M64.8649 59.4595H59.4595V64.8649H64.8649V59.4595Z" fill="black"/>
<path d="M75.6757 59.4595H70.2703V64.8649H75.6757V59.4595Z" fill="black"/>
<path d="M113.514 59.4595H108.108V64.8649H113.514V59.4595Z" fill="black"/>
<path d="M118.919 59.4595H113.513V64.8649H118.919V59.4595Z" fill="black"/>
<path d="M124.324 59.4595H118.919V64.8649H124.324V59.4595Z" fill="black"/>
<path d="M135.135 59.4595H129.73V64.8649H135.135V59.4595Z" fill="black"/>
<path d="M140.54 59.4595H135.135V64.8649H140.54V59.4595Z" fill="black"/>
<path d="M151.351 59.4595H145.946V64.8649H151.351V59.4595Z" fill="black"/>
<path d="M156.757 59.4595H151.351V64.8649H156.757V59.4595Z" fill="black"/>
<path d="M178.378 59.4595H172.973V64.8649H178.378V59.4595Z" fill="black"/>
<path d="M183.784 59.4595H178.378V64.8649H183.784V59.4595Z" fill="black"/>
<path d="M189.189 59.4595H183.784V64.8649H189.189V59.4595Z" fill="black"/>
<path d="M16.2162 64.8649H10.8108V70.2703H16.2162V64.8649Z" fill="black"/>
<path d="M27.027 64.8649H21.6216V70.2703H27.027V64.8649Z" fill="black"/>
<path d="M37.8378 64.8649H32.4324V70.2703H37.8378V64.8649Z" fill="black"/>
<path d="M48.6486 64.8649H43.2432V70.2703H48.6486V64.8649Z" fill="black"/>
<path d="M59.4594 64.8649H54.054V70.2703H59.4594V64.8649Z" fill="black"/>
<path d="M64.8649 64.8649H59.4595V70.2703H64.8649V64.8649Z" fill="black"/>
<path d="M70.2702 64.8649H64.8647V70.2703H70.2702V64.8649Z" fill="black"/>
<path d="M86.4865 64.8649H81.0811V70.2703H86.4865V64.8649Z" fill="black"/>
<path d="M97.2972 64.8649H91.8918V70.2703H97.2972V64.8649Z" fill="black"/>
<path d="M113.514 64.8649H108.108V70.2703H113.514V64.8649Z" fill="black"/>
<path d="M124.324 64.8649H118.919V70.2703H124.324V64.8649Z" fill="black"/>
<path d="M129.73 64.8649H124.324V70.2703H129.73V64.8649Z" fill="black"/>
<path d="M151.351 64.8649H145.946V70.2703H151.351V64.8649Z" fill="black"/>
<path d="M162.162 64.8649H156.757V70.2703H162.162V64.8649Z" fill="black"/>
<path d="M167.568 64.8649H162.162V70.2703H167.568V64.8649Z" fill="black"/>
<path d="M172.973 64.8649H167.568V70.2703H172.973V64.8649Z" fill="black"/>
<path d="M183.784 64.8649H178.378V70.2703H183.784V64.8649Z" fill="black"/>
<path d="M21.6217 70.2703H16.2163V75.6757H21.6217V70.2703Z" fill="black"/>
<path d="M32.4325 70.2703H27.0271V75.6757H32.4325V70.2703Z" fill="black"/>
<path d="M54.0541 70.2703H48.6487V75.6757H54.0541V70.2703Z" fill="black"/>
<path d="M59.4594 70.2703H54.054V75.6757H59.4594V70.2703Z" fill="black"/>
<path d="M64.8649 70.2703H59.4595V75.6757H64.8649V70.2703Z" fill="black"/>
<path d="M70.2702 70.2703H64.8647V75.6757H70.2702V70.2703Z" fill="black"/>
<path d="M91.892 70.2703H86.4866V75.6757H91.892V70.2703Z" fill="black"/>
<path d="M97.2972 70.2703H91.8918V75.6757H97.2972V70.2703Z" fill="black"/>
<path d="M118.919 70.2703H113.513V75.6757H118.919V70.2703Z" fill="black"/>
<path d="M129.73 70.2703H124.324V75.6757H129.73V70.2703Z" fill="black"/>
<path d="M135.135 70.2703H129.73V75.6757H135.135V70.2703Z" fill="black"/>
<path d="M145.946 70.2703H140.541V75.6757H145.946V70.2703Z" fill="black"/>
<path d="M151.351 70.2703H145.946V75.6757H151.351V70.2703Z" fill="black"/>
<path d="M162.162 70.2703H156.757V75.6757H162.162V70.2703Z" fill="black"/>
<path d="M167.568 70.2703H162.162V75.6757H167.568V70.2703Z" fill="black"/>
<path d="M178.378 70.2703H172.973V75.6757H178.378V70.2703Z" fill="black"/>
<path d="M21.6217 75.6757H16.2163V81.0811H21.6217V75.6757Z" fill="black"/>
<path d="M37.8378 75.6757H32.4324V81.0811H37.8378V75.6757Z" fill="black"/>
<path d="M43.2433 75.6757H37.8379V81.0811H43.2433V75.6757Z" fill="black"/>
<path d="M48.6486 75.6757H43.2432V81.0811H48.6486V75.6757Z" fill="black"/>
<path d="M64.8649 75.6757H59.4595V81.0811H64.8649V75.6757Z" fill="black"/>
<path d="M75.6757 75.6757H70.2703V81.0811H75.6757V75.6757Z" fill="black"/>
<path d="M86.4865 75.6757H81.0811V81.0811H86.4865V75.6757Z" fill="black"/>
<path d="M91.892 75.6757H86.4866V81.0811H91.892V75.6757Z" fill="black"/>
<path d="M97.2972 75.6757H91.8918V81.0811H97.2972V75.6757Z" fill="black"/>
<path d="M102.703 75.6757H97.2974V81.0811H102.703V75.6757Z" fill="black"/>
<path d="M108.108 75.6757H102.703V81.0811H108.108V75.6757Z" fill="black"/>
<path d="M140.54 75.6757H135.135V81.0811H140.54V75.6757Z" fill="black"/>
<path d="M151.351 75.6757H145.946V81.0811H151.351V75.6757Z" fill="black"/>
<path d="M162.162 75.6757H156.757V81.0811H162.162V75.6757Z" fill="black"/>
<path d="M167.568 75.6757H162.162V81.0811H167.568V75.6757Z" fill="black"/>
<path d="M172.973 75.6757H167.568V81.0811H172.973V75.6757Z" fill="black"/>
<path d="M37.8378 81.0811H32.4324V86.4865H37.8378V81.0811Z" fill="black"/>
<path d="M54.0541 81.0811H48.6487V86.4865H54.0541V81.0811Z" fill="black"/>
<path d="M75.6757 81.0811H70.2703V86.4865H75.6757V81.0811Z" fill="black"/>
<path d="M81.0812 81.0811H75.6758V86.4865H81.0812V81.0811Z" fill="black"/>
<path d="M102.703 81.0811H97.2974V86.4865H102.703V81.0811Z" fill="black"/>
<path d="M108.108 81.0811H102.703V86.4865H108.108V81.0811Z" fill="black"/>
<path d="M113.514 81.0811H108.108V86.4865H113.514V81.0811Z" fill="black"/>
<path d="M124.324 81.0811H118.919V86.4865H124.324V81.0811Z" fill="black"/>
<path d="M135.135 81.0811H129.73V86.4865H135.135V81.0811Z" fill="black"/>
<path d="M140.54 81.0811H135.135V86.4865H140.54V81.0811Z" fill="black"/>
<path d="M151.351 81.0811H145.946V86.4865H151.351V81.0811Z" fill="black"/>
<path d="M156.757 81.0811H151.351V86.4865H156.757V81.0811Z" fill="black"/>
<path d="M183.784 81.0811H178.378V86.4865H183.784V81.0811Z" fill="black"/>
<path d="M189.189 81.0811H183.784V86.4865H189.189V81.0811Z" fill="black"/>
<path d="M27.027 86.4865H21.6216V91.8919H27.027V86.4865Z" fill="black"/>
<path d="M32.4325 86.4865H27.0271V91.8919H32.4325V86.4865Z" fill="black"/>
<path d="M48.6486 86.4865H43.2432V91.8919H48.6486V86.4865Z" fill="black"/>
<path d="M54.0541 86.4865H48.6487V91.8919H54.0541V86.4865Z" fill="black"/>
<path d="M59.4594 86.4865H54.054V91.8919H59.4594V86.4865Z" fill="black"/>
<path d="M64.8649 86.4865H59.4595V91.8919H64.8649V86.4865Z" fill="black"/>
<path d="M70.2702 86.4865H64.8647V91.8919H70.2702V86.4865Z" fill="black"/>
<path d="M91.892 86.4865H86.4866V91.8919H91.892V86.4865Z" fill="black"/>
<path d="M97.2972 86.4865H91.8918V91.8919H97.2972V86.4865Z" fill="black"/>
<path d="M102.703 86.4865H97.2974V91.8919H102.703V86.4865Z" fill="black"/>
<path d="M113.514 86.4865H108.108V91.8919H113.514V86.4865Z" fill="black"/>
<path d="M124.324 86.4865H118.919V91.8919H124.324V86.4865Z" fill="black"/>
<path d="M135.135 86.4865H129.73V91.8919H135.135V86.4865Z" fill="black"/>
<path d="M162.162 86.4865H156.757V91.8919H162.162V86.4865Z" fill="black"/>
<path d="M183.784 86.4865H178.378V91.8919H183.784V86.4865Z" fill="black"/>
<path d="M27.027 91.8919H21.6216V97.2973H27.027V91.8919Z" fill="black"/>
<path d="M32.4325 91.8919H27.0271V97.2973H32.4325V91.8919Z" fill="black"/>
<path d="M37.8378 91.8919H32.4324V97.2973H37.8378V91.8919Z" fill="black"/>
<path d="M59.4594 91.8919H54.054V97.2973H59.4594V91.8919Z" fill="black"/>
<path d="M70.2702 91.8919H64.8647V97.2973H70.2702V91.8919Z" fill="black"/>
<path d="M91.892 91.8919H86.4866V97.2973H91.892V91.8919Z" fill="black"/>
<path d="M97.2972 91.8919H91.8918V97.2973H97.2972V91.8919Z" fill="black"/>
<path d="M102.703 91.8919H97.2974V97.2973H102.703V91.8919Z" fill="black"/>
<path d="M124.324 91.8919H118.919V97.2973H124.324V91.8919Z" fill="black"/>
<path d="M129.73 91.8919H124.324V97.2973H129.73V91.8919Z" fill="black"/>
<path d="M135.135 91.8919H129.73V97.2973H135.135V91.8919Z" fill="black"/>
<path d="M151.351 91.8919H145.946V97.2973H151.351V91.8919Z" fill="black"/>
<path d="M156.757 91.8919H151.351V97.2973H156.757V91.8919Z" fill="black"/>
<path d="M178.378 91.8919H172.973V97.2973H178.378V91.8919Z" fill="black"/>
<path d="M21.6217 97.2973H16.2163V102.703H21.6217V97.2973Z" fill="black"/>
<path d="M27.027 97.2973H21.6216V102.703H27.027V97.2973Z" fill="black"/>
<path d="M32.4325 97.2973H27.0271V102.703H32.4325V97.2973Z" fill="black"/>
<path d="M37.8378 97.2973H32.4324V102.703H37.8378V97.2973Z" fill="black"/>
<path d="M43.2433 97.2973H37.8379V102.703H43.2433V97.2973Z" fill="black"/>
<path d="M48.6486 97.2973H43.2432V102.703H48.6486V97.2973Z" fill="black"/>
<path d="M54.0541 97.2973H48.6487V102.703H54.0541V97.2973Z" fill="black"/>
<path d="M59.4594 97.2973H54.054V102.703H59.4594V97.2973Z" fill="black"/>
<path d="M64.8649 97.2973H59.4595V102.703H64.8649V97.2973Z" fill="black"/>
<path d="M70.2702 97.2973H64.8647V102.703H70.2702V97.2973Z" fill="black"/>
<path d="M81.0812 97.2973H75.6758V102.703H81.0812V97.2973Z" fill="black"/>
<path d="M86.4865 97.2973H81.0811V102.703H86.4865V97.2973Z" fill="black"/>
<path d="M97.2972 97.2973H91.8918V102.703H97.2972V97.2973Z" fill="black"/>
<path d="M102.703 97.2973H97.2974V102.703H102.703V97.2973Z" fill="black"/>
<path d="M108.108 97.2973H102.703V102.703H108.108V97.2973Z" fill="black"/>
<path d="M118.919 97.2973H113.513V102.703H118.919V97.2973Z" fill="black"/>
<path d="M124.324 97.2973H118.919V102.703H124.324V97.2973Z" fill="black"/>
<path d="M135.135 97.2973H129.73V102.703H135.135V97.2973Z" fill="black"/>
<path d="M140.54 97.2973H135.135V102.703H140.54V97.2973Z" fill="black"/>
<path d="M145.946 97.2973H140.541V102.703H145.946V97.2973Z" fill="black"/>
<path d="M151.351 97.2973H145.946V102.703H151.351V97.2973Z" fill="black"/>
<path d="M162.162 97.2973H156.757V102.703H162.162V97.2973Z" fill="black"/>
<path d="M167.568 97.2973H162.162V102.703H167.568V97.2973Z" fill="black"/>
<path d="M183.784 97.2973H178.378V102.703H183.784V97.2973Z" fill="black"/>
<path d="M27.027 102.703H21.6216V108.108H27.027V102.703Z" fill="black"/>
<path d="M32.4325 102.703H27.0271V108.108H32.4325V102.703Z" fill="black"/>
<path d="M37.8378 102.703H32.4324V108.108H37.8378V102.703Z" fill="black"/>
<path d="M43.2433 102.703H37.8379V108.108H43.2433V102.703Z" fill="black"/>
<path d="M59.4594 102.703H54.054V108.108H59.4594V102.703Z" fill="black"/>
<path d="M64.8649 102.703H59.4595V108.108H64.8649V102.703Z" fill="black"/>
<path d="M75.6757 102.703H70.2703V108.108H75.6757V102.703Z" fill="black"/>
<path d="M102.703 102.703H97.2974V108.108H102.703V102.703Z" fill="black"/>
<path d="M113.514 102.703H108.108V108.108H113.514V102.703Z" fill="black"/>
<path d="M118.919 102.703H113.513V108.108H118.919V102.703Z" fill="black"/>
<path d="M129.73 102.703H124.324V108.108H129.73V102.703Z" fill="black"/>
<path d="M140.54 102.703H135.135V108.108H140.54V102.703Z" fill="black"/>
<path d="M151.351 102.703H145.946V108.108H151.351V102.703Z" fill="black"/>
<path d="M156.757 102.703H151.351V108.108H156.757V102.703Z" fill="black"/>
<path d="M172.973 102.703H167.568V108.108H172.973V102.703Z" fill="black"/>
<path d="M183.784 102.703H178.378V108.108H183.784V102.703Z" fill="black"/>
<path d="M189.189 102.703H183.784V108.108H189.189V102.703Z" fill="black"/>
<path d="M21.6217 108.108H16.2163V113.513H21.6217V108.108Z" fill="black"/>
<path d="M37.8378 108.108H32.4324V113.513H37.8378V108.108Z" fill="black"/>
<path d="M43.2433 108.108H37.8379V113.513H43.2433V108.108Z" fill="black"/>
<path d="M48.6486 108.108H43.2432V113.513H48.6486V108.108Z" fill="black"/>
<path d="M59.4594 108.108H54.054V113.513H59.4594V108.108Z" fill="black"/>
<path d="M81.0812 108.108H75.6758V113.513H81.0812V108.108Z" fill="black"/>
<path d="M86.4865 108.108H81.0811V113.513H86.4865V108.108Z" fill="black"/>
<path d="M91.892 108.108H86.4866V113.513H91.892V108.108Z" fill="black"/>
<path d="M97.2972 108.108H91.8918V113.513H97.2972V108.108Z" fill="black"/>
<path d="M102.703 108.108H97.2974V113.513H102.703V108.108Z" fill="black"/>
<path d="M108.108 108.108H102.703V113.513H108.108V108.108Z" fill="black"/>
<path d="M151.351 108.108H145.946V113.513H151.351V108.108Z" fill="black"/>
<path d="M172.973 108.108H167.568V113.513H172.973V108.108Z" fill="black"/>
<path d="M183.784 108.108H178.378V113.513H183.784V108.108Z" fill="black"/>
<path d="M16.2162 113.513H10.8108V118.919H16.2162V113.513Z" fill="black"/>
<path d="M59.4594 113.513H54.054V118.919H59.4594V113.513Z" fill="black"/>
<path d="M64.8649 113.513H59.4595V118.919H64.8649V113.513Z" fill="black"/>
<path d="M70.2702 113.513H64.8647V118.919H70.2702V113.513Z" fill="black"/>
<path d="M75.6757 113.513H70.2703V118.919H75.6757V113.513Z" fill="black"/>
<path d="M102.703 113.513H97.2974V118.919H102.703V113.513Z" fill="black"/>
<path d="M118.919 113.513H113.513V118.919H118.919V113.513Z" fill="black"/>
<path d="M124.324 113.513H118.919V118.919H124.324V113.513Z" fill="black"/>
<path d="M129.73 113.513H124.324V118.919H129.73V113.513Z" fill="black"/>
<path d="M135.135 113.513H129.73V118.919H135.135V113.513Z" fill="black"/>
<path d="M140.54 113.513H135.135V118.919H140.54V113.513Z" fill="black"/>
<path d="M162.162 113.513H156.757V118.919H162.162V113.513Z" fill="black"/>
<path d="M178.378 113.513H172.973V118.919H178.378V113.513Z" fill="black"/>
<path d="M21.6217 118.919H16.2163V124.324H21.6217V118.919Z" fill="black"/>
<path d="M27.027 118.919H21.6216V124.324H27.027V118.919Z" fill="black"/>
<path d="M43.2433 118.919H37.8379V124.324H43.2433V118.919Z" fill="black"/>
<path d="M48.6486 118.919H43.2432V124.324H48.6486V118.919Z" fill="black"/>
<path d="M54.0541 118.919H48.6487V124.324H54.0541V118.919Z" fill="black"/>
<path d="M59.4594 118.919H54.054V124.324H59.4594V118.919Z" fill="black"/>
<path d="M64.8649 118.919H59.4595V124.324H64.8649V118.919Z" fill="black"/>
<path d="M70.2702 118.919H64.8647V124.324H70.2702V118.919Z" fill="black"/>
<path d="M86.4865 118.919H81.0811V124.324H86.4865V118.919Z" fill="black"/>
<path d="M91.892 118.919H86.4866V124.324H91.892V118.919Z" fill="black"/>
<path d="M108.108 118.919H102.703V124.324H108.108V118.919Z" fill="black"/>
<path d="M118.919 118.919H113.513V124.324H118.919V118.919Z" fill="black"/>
<path d="M135.135 118.919H129.73V124.324H135.135V118.919Z" fill="black"/>
<path d="M140.54 118.919H135.135V124.324H140.54V118.919Z" fill="black"/>
<path d="M145.946 118.919H140.541V124.324H145.946V118.919Z" fill="black"/>
<path d="M162.162 118.919H156.757V124.324H162.162V118.919Z" fill="black"/>
<path d="M167.568 118.919H162.162V124.324H167.568V118.919Z" fill="black"/>
<path d="M183.784 118.919H178.378V124.324H183.784V118.919Z" fill="black"/>
<path d="M16.2162 124.324H10.8108V129.73H16.2162V124.324Z" fill="black"/>
<path d="M21.6217 124.324H16.2163V129.73H21.6217V124.324Z" fill="black"/>
<path d="M27.027 124.324H21.6216V129.73H27.027V124.324Z" fill="black"/>
<path d="M43.2433 124.324H37.8379V129.73H43.2433V124.324Z" fill="black"/>
<path d="M59.4594 124.324H54.054V129.73H59.4594V124.324Z" fill="black"/>
<path d="M64.8649 124.324H59.4595V129.73H64.8649V124.324Z" fill="black"/>
<path d="M75.6757 124.324H70.2703V129.73H75.6757V124.324Z" fill="black"/>
<path d="M102.703 124.324H97.2974V129.73H102.703V124.324Z" fill="black"/>
<path d="M108.108 124.324H102.703V129.73H108.108V124.324Z" fill="black"/>
<path d="M113.514 124.324H108.108V129.73H113.514V124.324Z" fill="black"/>
<path d="M118.919 124.324H113.513V129.73H118.919V124.324Z" fill="black"/>
<path d="M124.324 124.324H118.919V129.73H124.324V124.324Z" fill="black"/>
<path d="M129.73 124.324H124.324V129.73H129.73V124.324Z" fill="black"/>
<path d="M140.54 124.324H135.135V129.73H140.54V124.324Z" fill="black"/>
<path d="M145.946 124.324H140.541V129.73H145.946V124.324Z" fill="black"/>
<path d="M156.757 124.324H151.351V129.73H156.757V124.324Z" fill="black"/>
<path d="M172.973 124.324H167.568V129.73H172.973V124.324Z" fill="black"/>
<path d="M183.784 124.324H178.378V129.73H183.784V124.324Z" fill="black"/>
<path d="M189.189 124.324H183.784V129.73H189.189V124.324Z" fill="black"/>
<path d="M16.2162 129.73H10.8108V135.135H16.2162V129.73Z" fill="black"/>
<path d="M27.027 129.73H21.6216V135.135H27.027V129.73Z" fill="black"/>
<path d="M43.2433 129.73H37.8379V135.135H43.2433V129.73Z" fill="black"/>
<path d="M48.6486 129.73H43.2432V135.135H48.6486V129.73Z" fill="black"/>
<path d="M54.0541 129.73H48.6487V135.135H54.0541V129.73Z" fill="black"/>
<path d="M59.4594 129.73H54.054V135.135H59.4594V129.73Z" fill="black"/>
<path d="M70.2702 129.73H64.8647V135.135H70.2702V129.73Z" fill="black"/>
<path d="M86.4865 129.73H81.0811V135.135H86.4865V129.73Z" fill="black"/>
<path d="M97.2972 129.73H91.8918V135.135H97.2972V129.73Z" fill="black"/>
<path d="M108.108 129.73H102.703V135.135H108.108V129.73Z" fill="black"/>
<path d="M124.324 129.73H118.919V135.135H124.324V129.73Z" fill="black"/>
<path d="M129.73 129.73H124.324V135.135H129.73V129.73Z" fill="black"/>
<path d="M151.351 129.73H145.946V135.135H151.351V129.73Z" fill="black"/>
<path d="M156.757 129.73H151.351V135.135H156.757V129.73Z" fill="black"/>
<path d="M162.162 129.73H156.757V135.135H162.162V129.73Z" fill="black"/>
<path d="M167.568 129.73H162.162V135.135H167.568V129.73Z" fill="black"/>
<path d="M172.973 129.73H167.568V135.135H172.973V129.73Z" fill="black"/>
<path d="M183.784 129.73H178.378V135.135H183.784V129.73Z" fill="black"/>
<path d="M16.2162 135.135H10.8108V140.541H16.2162V135.135Z" fill="black"/>
<path d="M32.4325 135.135H27.0271V140.541H32.4325V135.135Z" fill="black"/>
<path d="M43.2433 135.135H37.8379V140.541H43.2433V135.135Z" fill="black"/>
<path d="M54.0541 135.135H48.6487V140.541H54.0541V135.135Z" fill="black"/>
<path d="M81.0812 135.135H75.6758V140.541H81.0812V135.135Z" fill="black"/>
<path d="M91.892 135.135H86.4866V140.541H91.892V135.135Z" fill="black"/>
<path d="M113.514 135.135H108.108V140.541H113.514V135.135Z" fill="black"/>
<path d="M118.919 135.135H113.513V140.541H118.919V135.135Z" fill="black"/>
<path d="M124.324 135.135H118.919V140.541H124.324V135.135Z" fill="black"/>
<path d="M129.73 135.135H124.324V140.541H129.73V135.135Z" fill="black"/>
<path d="M135.135 135.135H129.73V140.541H135.135V135.135Z" fill="black"/>
<path d="M156.757 135.135H151.351V140.541H156.757V135.135Z" fill="black"/>
<path d="M167.568 135.135H162.162V140.541H167.568V135.135Z" fill="black"/>
<path d="M172.973 135.135H167.568V140.541H172.973V135.135Z" fill="black"/>
<path d="M178.378 135.135H172.973V140.541H178.378V135.135Z" fill="black"/>
<path d="M16.2162 140.541H10.8108V145.946H16.2162V140.541Z" fill="black"/>
<path d="M32.4325 140.541H27.0271V145.946H32.4325V140.541Z" fill="black"/>
<path d="M48.6486 140.541H43.2432V145.946H48.6486V140.541Z" fill="black"/>
<path d="M59.4594 140.541H54.054V145.946H59.4594V140.541Z" fill="black"/>
<path d="M64.8649 140.541H59.4595V145.946H64.8649V140.541Z" fill="black"/>
<path d="M75.6757 140.541H70.2703V145.946H75.6757V140.541Z" fill="black"/>
<path d="M81.0812 140.541H75.6758V145.946H81.0812V140.541Z" fill="black"/>
<path d="M86.4865 140.541H81.0811V145.946H86.4865V140.541Z" fill="black"/>
<path d="M91.892 140.541H86.4866V145.946H91.892V140.541Z" fill="black"/>
<path d="M97.2972 140.541H91.8918V145.946H97.2972V140.541Z" fill="black"/>
<path d="M102.703 140.541H97.2974V145.946H102.703V140.541Z" fill="black"/>
<path d="M108.108 140.541H102.703V145.946H108.108V140.541Z" fill="black"/>
<path d="M113.514 140.541H108.108V145.946H113.514V140.541Z" fill="black"/>
<path d="M135.135 140.541H129.73V145.946H135.135V140.541Z" fill="black"/>
<path d="M140.54 140.541H135.135V145.946H140.54V140.541Z" fill="black"/>
<path d="M145.946 140.541H140.541V145.946H145.946V140.541Z" fill="black"/>
<path d="M151.351 140.541H145.946V145.946H151.351V140.541Z" fill="black"/>
<path d="M156.757 140.541H151.351V145.946H156.757V140.541Z" fill="black"/>
<path d="M162.162 140.541H156.757V145.946H162.162V140.541Z" fill="black"/>
<path d="M167.568 140.541H162.162V145.946H167.568V140.541Z" fill="black"/>
<path d="M189.189 140.541H183.784V145.946H189.189V140.541Z" fill="black"/>
<path d="M59.4594 145.946H54.054V151.351H59.4594V145.946Z" fill="black"/>
<path d="M64.8649 145.946H59.4595V151.351H64.8649V145.946Z" fill="black"/>
<path d="M70.2702 145.946H64.8647V151.351H70.2702V145.946Z" fill="black"/>
<path d="M75.6757 145.946H70.2703V151.351H75.6757V145.946Z" fill="black"/>
<path d="M91.892 145.946H86.4866V151.351H91.892V145.946Z" fill="black"/>
<path d="M102.703 145.946H97.2974V151.351H102.703V145.946Z" fill="black"/>
<path d="M113.514 145.946H108.108V151.351H113.514V145.946Z" fill="black"/>
<path d="M118.919 145.946H113.513V151.351H118.919V145.946Z" fill="black"/>
<path d="M124.324 145.946H118.919V151.351H124.324V145.946Z" fill="black"/>
<path d="M145.946 145.946H140.541V151.351H145.946V145.946Z" fill="black"/>
<path d="M167.568 145.946H162.162V151.351H167.568V145.946Z" fill="black"/>
<path d="M178.378 145.946H172.973V151.351H178.378V145.946Z" fill="black"/>
<path d="M189.189 145.946H183.784V151.351H189.189V145.946Z" fill="black"/>
<path d="M16.2162 151.351H10.8108V156.757H16.2162V151.351Z" fill="black"/>
<path d="M21.6217 151.351H16.2163V156.757H21.6217V151.351Z" fill="black"/>
<path d="M27.027 151.351H21.6216V156.757H27.027V151.351Z" fill="black"/>
<path d="M32.4325 151.351H27.0271V156.757H32.4325V151.351Z" fill="black"/>
<path d="M37.8378 151.351H32.4324V156.757H37.8378V151.351Z" fill="black"/>
<path d="M43.2433 151.351H37.8379V156.757H43.2433V151.351Z" fill="black"/>
<path d="M48.6486 151.351H43.2432V156.757H48.6486V151.351Z" fill="black"/>
<path d="M59.4594 151.351H54.054V156.757H59.4594V151.351Z" fill="black"/>
<path d="M70.2702 151.351H64.8647V156.757H70.2702V151.351Z" fill="black"/>
<path d="M81.0812 151.351H75.6758V156.757H81.0812V151.351Z" fill="black"/>
<path d="M86.4865 151.351H81.0811V156.757H86.4865V151.351Z" fill="black"/>
<path d="M97.2972 151.351H91.8918V156.757H97.2972V151.351Z" fill="black"/>
<path d="M102.703 151.351H97.2974V156.757H102.703V151.351Z" fill="black"/>
<path d="M108.108 151.351H102.703V156.757H108.108V151.351Z" fill="black"/>
<path d="M124.324 151.351H118.919V156.757H124.324V151.351Z" fill="black"/>
<path d="M129.73 151.351H124.324V156.757H129.73V151.351Z" fill="black"/>
<path d="M135.135 151.351H129.73V156.757H135.135V151.351Z" fill="black"/>
<path d="M140.54 151.351H135.135V156.757H140.54V151.351Z" fill="black"/>
<path d="M145.946 151.351H140.541V156.757H145.946V151.351Z" fill="black"/>
<path d="M156.757 151.351H151.351V156.757H156.757V151.351Z" fill="black"/>
<path d="M167.568 151.351H162.162V156.757H167.568V151.351Z" fill="black"/>
<path d="M172.973 151.351H167.568V156.757H172.973V151.351Z" fill="black"/>
<path d="M178.378 151.351H172.973V156.757H178.378V151.351Z" fill="black"/>
<path d="M183.784 151.351H178.378V156.757H183.784V151.351Z" fill="black"/>
<path d="M16.2162 156.757H10.8108V162.162H16.2162V156.757Z" fill="black"/>
<path d="M48.6486 156.757H43.2432V162.162H48.6486V156.757Z" fill="black"/>
<path d="M70.2702 156.757H64.8647V162.162H70.2702V156.757Z" fill="black"/>
<path d="M102.703 156.757H97.2974V162.162H102.703V156.757Z" fill="black"/>
<path d="M113.514 156.757H108.108V162.162H113.514V156.757Z" fill="black"/>
<path d="M129.73 156.757H124.324V162.162H129.73V156.757Z" fill="black"/>
<path d="M135.135 156.757H129.73V162.162H135.135V156.757Z" fill="black"/>
<path d="M140.54 156.757H135.135V162.162H140.54V156.757Z" fill="black"/>
<path d="M145.946 156.757H140.541V162.162H145.946V156.757Z" fill="black"/>
<path d="M167.568 156.757H162.162V162.162H167.568V156.757Z" fill="black"/>
<path d="M172.973 156.757H167.568V162.162H172.973V156.757Z" fill="black"/>
<path d="M178.378 156.757H172.973V162.162H178.378V156.757Z" fill="black"/>
<path d="M189.189 156.757H183.784V162.162H189.189V156.757Z" fill="black"/>
<path d="M16.2162 162.162H10.8108V167.568H16.2162V162.162Z" fill="black"/>
<path d="M27.027 162.162H21.6216V167.568H27.027V162.162Z" fill="black"/>
<path d="M32.4325 162.162H27.0271V167.568H32.4325V162.162Z" fill="black"/>
<path d="M37.8378 162.162H32.4324V167.568H37.8378V162.162Z" fill="black"/>
<path d="M48.6486 162.162H43.2432V167.568H48.6486V162.162Z" fill="black"/>
<path d="M59.4594 162.162H54.054V167.568H59.4594V162.162Z" fill="black"/>
<path d="M64.8649 162.162H59.4595V167.568H64.8649V162.162Z" fill="black"/>
<path d="M86.4865 162.162H81.0811V167.568H86.4865V162.162Z" fill="black"/>
<path d="M91.892 162.162H86.4866V167.568H91.892V162.162Z" fill="black"/>
<path d="M97.2972 162.162H91.8918V167.568H97.2972V162.162Z" fill="black"/>
<path d="M108.108 162.162H102.703V167.568H108.108V162.162Z" fill="black"/>
<path d="M118.919 162.162H113.513V167.568H118.919V162.162Z" fill="black"/>
<path d="M135.135 162.162H129.73V167.568H135.135V162.162Z" fill="black"/>
<path d="M145.946 162.162H140.541V167.568H145.946V162.162Z" fill="black"/>
<path d="M151.351 162.162H145.946V167.568H151.351V162.162Z" fill="black"/>
<path d="M156.757 162.162H151.351V167.568H156.757V162.162Z" fill="black"/>
<path d="M162.162 162.162H156.757V167.568H162.162V162.162Z" fill="black"/>
<path d="M167.568 162.162H162.162V167.568H167.568V162.162Z" fill="black"/>
<path d="M172.973 162.162H167.568V167.568H172.973V162.162Z" fill="black"/>
<path d="M183.784 162.162H178.378V167.568H183.784V162.162Z" fill="black"/>
<path d="M189.189 162.162H183.784V167.568H189.189V162.162Z" fill="black"/>
<path d="M16.2162 167.568H10.8108V172.973H16.2162V167.568Z" fill="black"/>
<path d="M27.027 167.568H21.6216V172.973H27.027V167.568Z" fill="black"/>
<path d="M32.4325 167.568H27.0271V172.973H32.4325V167.568Z" fill="black"/>
<path d="M37.8378 167.568H32.4324V172.973H37.8378V167.568Z" fill="black"/>
<path d="M48.6486 167.568H43.2432V172.973H48.6486V167.568Z" fill="black"/>
<path d="M59.4594 167.568H54.054V172.973H59.4594V167.568Z" fill="black"/>
<path d="M64.8649 167.568H59.4595V172.973H64.8649V167.568Z" fill="black"/>
<path d="M75.6757 167.568H70.2703V172.973H75.6757V167.568Z" fill="black"/>
<path d="M102.703 167.568H97.2974V172.973H102.703V167.568Z" fill="black"/>
<path d="M113.514 167.568H108.108V172.973H113.514V167.568Z" fill="black"/>
<path d="M118.919 167.568H113.513V172.973H118.919V167.568Z" fill="black"/>
<path d="M124.324 167.568H118.919V172.973H124.324V167.568Z" fill="black"/>
<path d="M129.73 167.568H124.324V172.973H129.73V167.568Z" fill="black"/>
<path d="M135.135 167.568H129.73V172.973H135.135V167.568Z" fill="black"/>
<path d="M140.54 167.568H135.135V172.973H140.54V167.568Z" fill="black"/>
<path d="M151.351 167.568H145.946V172.973H151.351V167.568Z" fill="black"/>
<path d="M162.162 167.568H156.757V172.973H162.162V167.568Z" fill="black"/>
<path d="M167.568 167.568H162.162V172.973H167.568V167.568Z" fill="black"/>
<path d="M178.378 167.568H172.973V172.973H178.378V167.568Z" fill="black"/>
<path d="M16.2162 172.973H10.8108V178.378H16.2162V172.973Z" fill="black"/>
<path d="M27.027 172.973H21.6216V178.378H27.027V172.973Z" fill="black"/>
<path d="M32.4325 172.973H27.0271V178.378H32.4325V172.973Z" fill="black"/>
<path d="M37.8378 172.973H32.4324V178.378H37.8378V172.973Z" fill="black"/>
<path d="M48.6486 172.973H43.2432V178.378H48.6486V172.973Z" fill="black"/>
<path d="M59.4594 172.973H54.054V178.378H59.4594V172.973Z" fill="black"/>
<path d="M70.2702 172.973H64.8647V178.378H70.2702V172.973Z" fill="black"/>
<path d="M91.892 172.973H86.4866V178.378H91.892V172.973Z" fill="black"/>
<path d="M97.2972 172.973H91.8918V178.378H97.2972V172.973Z" fill="black"/>
<path d="M113.514 172.973H108.108V178.378H113.514V172.973Z" fill="black"/>
<path d="M124.324 172.973H118.919V178.378H124.324V172.973Z" fill="black"/>
<path d="M129.73 172.973H124.324V178.378H129.73V172.973Z" fill="black"/>
<path d="M140.54 172.973H135.135V178.378H140.54V172.973Z" fill="black"/>
<path d="M156.757 172.973H151.351V178.378H156.757V172.973Z" fill="black"/>
<path d="M162.162 172.973H156.757V178.378H162.162V172.973Z" fill="black"/>
<path d="M178.378 172.973H172.973V178.378H178.378V172.973Z" fill="black"/>
<path d="M183.784 172.973H178.378V178.378H183.784V172.973Z" fill="black"/>
<path d="M16.2162 178.378H10.8108V183.784H16.2162V178.378Z" fill="black"/>
<path d="M48.6486 178.378H43.2432V183.784H48.6486V178.378Z" fill="black"/>
<path d="M59.4594 178.378H54.054V183.784H59.4594V178.378Z" fill="black"/>
<path d="M70.2702 178.378H64.8647V183.784H70.2702V178.378Z" fill="black"/>
<path d="M81.0812 178.378H75.6758V183.784H81.0812V178.378Z" fill="black"/>
<path d="M91.892 178.378H86.4866V183.784H91.892V178.378Z" fill="black"/>
<path d="M97.2972 178.378H91.8918V183.784H97.2972V178.378Z" fill="black"/>
<path d="M102.703 178.378H97.2974V183.784H102.703V178.378Z" fill="black"/>
<path d="M129.73 178.378H124.324V183.784H129.73V178.378Z" fill="black"/>
<path d="M162.162 178.378H156.757V183.784H162.162V178.378Z" fill="black"/>
<path d="M172.973 178.378H167.568V183.784H172.973V178.378Z" fill="black"/>
<path d="M178.378 178.378H172.973V183.784H178.378V178.378Z" fill="black"/>
<path d="M16.2162 183.784H10.8108V189.189H16.2162V183.784Z" fill="black"/>
<path d="M21.6217 183.784H16.2163V189.189H21.6217V183.784Z" fill="black"/>
<path d="M27.027 183.784H21.6216V189.189H27.027V183.784Z" fill="black"/>
<path d="M32.4325 183.784H27.0271V189.189H32.4325V183.784Z" fill="black"/>
<path d="M37.8378 183.784H32.4324V189.189H37.8378V183.784Z" fill="black"/>
<path d="M43.2433 183.784H37.8379V189.189H43.2433V183.784Z" fill="black"/>
<path d="M48.6486 183.784H43.2432V189.189H48.6486V183.784Z" fill="black"/>
<path d="M59.4594 183.784H54.054V189.189H59.4594V183.784Z" fill="black"/>
<path d="M64.8649 183.784H59.4595V189.189H64.8649V183.784Z" fill="black"/>
<path d="M81.0812 183.784H75.6758V189.189H81.0812V183.784Z" fill="black"/>
<path d="M86.4865 183.784H81.0811V189.189H86.4865V183.784Z" fill="black"/>
<path d="M91.892 183.784H86.4866V189.189H91.892V183.784Z" fill="black"/>
<path d="M97.2972 183.784H91.8918V189.189H97.2972V183.784Z" fill="black"/>
<path d="M108.108 183.784H102.703V189.189H108.108V183.784Z" fill="black"/>
<path d="M135.135 183.784H129.73V189.189H135.135V183.784Z" fill="black"/>
<path d="M140.54 183.784H135.135V189.189H140.54V183.784Z" fill="black"/>
<path d="M145.946 183.784H140.541V189.189H145.946V183.784Z" fill="black"/>
<path d="M151.351 183.784H145.946V189.189H151.351V183.784Z" fill="black"/>
<path d="M156.757 183.784H151.351V189.189H156.757V183.784Z" fill="black"/>
<path d="M162.162 183.784H156.757V189.189H162.162V183.784Z" fill="black"/>
<path d="M172.973 183.784H167.568V189.189H172.973V183.784Z" fill="black"/>
<path d="M183.784 183.784H178.378V189.189H183.784V183.784Z" fill="black"/>
</svg>
