<svg xmlns="http://www.w3.org/2000/svg" width="136" height="24" fill="#ff41be" xmlns:v="https://vecta.io/nano"><path d="M63.81 20.022H15.94l3.813 3.706 44.057-3.706zM20.371 5.033v.562c-.887-.551-1.689-.868-2.776-.868-3.355 0-5.902 2.971-5.902 6.621s2.547 6.621 5.902 6.621c1.093 0 1.889-.317 2.776-.868v.562h2.948V5.033h-2.948zm-2.776 9.893c-1.654 0-2.862-1.58-2.862-3.583 0-1.997 1.214-3.583 2.862-3.583 1.654 0 2.822 1.586 2.822 3.583 0 2.003-1.168 3.583-2.822 3.583zm26.396-9.893v7.417c0 1.391-.985 2.565-2.416 2.565s-2.416-1.174-2.416-2.565V5.033h-2.948v7.417c0 3.044 2.141 5.519 5.272 5.519 1.448 0 2.507-.779 2.507-.779v.467h2.948V5.033H43.99zm27.472 12.625v-7.417c0-1.391.985-2.565 2.416-2.565s2.416 1.174 2.416 2.565v7.417h2.948v-7.417c0-3.043-2.141-5.519-5.272-5.519-1.448 0-2.507.779-2.507.779v-.467h-2.948v12.624h2.948zm-68.266 0v-4.891h2.181l3.778 4.891h3.858l-4.563-5.903c1.42-.99 2.353-2.604 2.353-4.434 0-2.999-2.513-5.436-5.599-5.436H.112v15.774h3.086zm0-12.775h2.009c1.385 0 2.519 1.096 2.519 2.443 0 1.352-1.133 2.448-2.519 2.448H3.197V4.883zm51.688 9.787c-.263.172-.601.312-.985.312-.481 0-1.391-.356-1.391-1.547V8.032h2.519V5.033h-2.519V1.89h-2.948v3.144h-1.557v2.999h1.557v5.441c0 2.821 2.187 4.501 4.385 4.501.819 0 1.958-.262 2.885-.796l-1.946-2.509zm-24.232-3.722l5.055-5.914h-4.133l-3.538 4.395V.844h-3.034v16.814h3.034v-5.185l4.351 5.185h4.133l-5.868-6.71zM61.697 4.71c-3.412 0-5.862 2.915-5.862 6.632 0 3.911 3.074 6.632 6.154 6.632 1.557 0 3.549-.517 5.221-2.826l-2.605-1.463c-2.015 2.888-5.37 1.419-5.759-1.463h8.49c.733-4.529-2.284-7.511-5.639-7.511zm2.57 5.002h-5.312c.624-2.954 4.74-3.121 5.313 0zm38.373-5.87h1.889v-1.23c0-.339.269-.54.813-.606.612.011.916.223.916.64v1.196h1.471c.372.111.555.412.555.89 0 .584-.212.874-.641.874h-1.385V7.07h1.769c.355.1.538.395.538.874 0 .584-.212.874-.641.874h-1.649v1.397h1.975c.206.011.349.122.418.339V3.809h-.47c-.372 0-.555-.284-.555-.857 0-.406.143-.651.435-.74h9.371c.287.045.435.306.435.79 0 .54-.16.807-.486.807h-4.299v11.367c0 .373-.246.556-.744.556-.567 0-.848-.178-.848-.54v-1.447l-2.805.707a3.36 3.36 0 0 1-.796.117c-.417-.022-.652-.395-.709-1.113 0-.395.234-.64.709-.74l.762-.15v-1.013c-.092.267-.252.406-.487.406h-1.906v2.693c1.557.84 3.509 1.319 5.856 1.43l5.49-.167a.58.58 0 0 1 .452.373c.046.145.069.395.069.74 0 .462-.303.69-.916.69l-4.122.033c-4.459-.022-7.579-1.013-9.354-2.966l-.452 2.882c-.057.284-.372.423-.933.423-.487-.011-.887-.334-.813-.707.447-2.231.721-4.83.847-7.778.138-.211.43-.339.865-.373.532.033.796.206.796.523l-.138 3.032a6.44 6.44 0 0 0 .676.69V8.833h-2.164c-.407 0-.619-.312-.641-.94 0-.44.183-.707.555-.807h2.181V5.623h-1.786c-.395 0-.607-.312-.641-.94 0-.451.183-.729.538-.84zm8.873-.033h-1.196v1.636h1.196V3.809zm-1.196 3.249v1.736h1.196V7.058h-1.196zm0 5.185l1.041-.217a.39.39 0 0 1 .155-.067v-1.547h-1.196v1.831zm4.31-5.859c.43.056.641.261.641.623.046 1.168.201 2.214.47 3.149.395-1.102.624-2.292.692-3.572 0-.25-.103-.373-.309-.373h-2.198c-.384 0-.572-.312-.572-.94 0-.484.166-.746.503-.79h3.532c.384 0 .607.25.676.757-.057 2.871-.527 5.263-1.403 7.172.31.517.676.979 1.094 1.38.286.289.435.59.435.89-.034.451-.309.673-.813.673-.286 0-.595-.167-.916-.506-.263-.256-.498-.528-.693-.807a10.99 10.99 0 0 1-.795 1.029c-.206.167-.424.25-.642.25-.44-.022-.732-.306-.95-.824-.086-.2.052-.606.189-.757.447-.484.842-.99 1.179-1.513-.589-1.38-.933-3.038-1.041-4.968a.87.87 0 0 1 .349-.74 1.17 1.17 0 0 1 .572-.134zm7.694.558h10.688c.773.011 1.196.323 1.265.924v6.198c0 .718-.412 1.091-1.231 1.113h-1.162l.641.117c1.546.323 2.49.579 2.822.757.361.122.539.44.539.94-.012.323-.081.579-.207.757-.08.178-.429.345-.606.267-1.563-.673-3.303-1.057-5.198-1.213-.309-.089-.47-.423-.47-.99 0-.306.086-.518.258-.64h-4.225c.172.234.258.445.258.623 0 .167-.098.323-.292.456-1.237.673-2.731 1.263-4.488 1.769-.183.067-.372.111-.556.134-.543 0-.881-.356-1.076-1.063-.046-.161-.017-.629.241-.673.486-.089 1.625-.406 3.463-.979l.71-.267h-1.386c-.784-.033-1.19-.384-1.213-1.046V7.893c.023-.629.429-.951 1.225-.951zm11.678-.556h-12.8c-.716-.122-1.082-.534-1.093-1.23V3.303c.091-.573.435-.885 1.024-.94h12.875c.819.078 1.231.467 1.231 1.163v1.586c-.006.807-.418 1.23-1.237 1.274zm-11.884-2.443c-.115 0-.206.056-.275.167v.44c.034.156.126.25.275.267h2.307v-.874h-2.307zm.916 5.224h9.302V8.9c-.011-.223-.131-.345-.366-.373h-8.73c-.115 0-.183.083-.206.25v.389zm0 2.153h9.302v-.623h-9.302v.623zm9.302 1.836v-.3h-9.302v.473c.057.189.194.284.418.284h8.506c.252 0 .378-.156.378-.456zm-6.165-9.214v.874h2.685v-.874h-2.685zm4.436 0v.874h2.548c.229 0 .349-.078.349-.234v-.456c-.034-.122-.132-.184-.292-.184h-2.605zM99.846 16.066c-2.45-.745-4.437-1.658-5.936-2.765h5.856c.424 0 .572-.401.572-.818s-.143-.818-.572-.818h-6.83v-.656c0-.2-.086-.345-.258-.423h.99a.94.94 0 0 0 .418-.089c.034.167.08.284.137.362a.61.61 0 0 0 .487.2l3.984-.473.074.328c.08.323.383.59.893.484.475-.1.687-.501.549-.929l-.744-2.354c-.126-.334-.321-.595-.824-.556-.487.033-.738.517-.607.907l.263.784-1.506.067c.973-1.057 1.941-2.52 3.011-4.529.126-.239.149-.662-.326-.907-.618-.323-1.053 0-1.162.223-.361.746-.756 1.452-1.162 2.114l-.796-.707a8.34 8.34 0 0 0 .882-1.146c.24-.384.429-.746.521-1.096.143-.54 0-.857-.366-.996s-.744-.1-.968.317c-.378.707-.819 1.358-1.334 1.942l-.017.017a.63.63 0 0 0-.59.067v-.083c0-.562-.269-.907-.813-.907h-.847l.206-.623c.069-.245.017-.44-.2-.634s-.636-.239-.75-.239c-.258 0-.475.134-.544.339l-.424 1.163h-.59c-.418 0-.67.2-.767.545-.063-.156-.183-.278-.532-.362s-.716-.028-.847.223l-1.111 2.02c-.103-.117-.383-.412-.658-.657.206-.189.452-.529.727-1.013.252-.384.429-.746.521-1.096.034-.167.052-.328.052-.473-.023-.245-.16-.434-.418-.523-.532-.189-.83 0-.968.289-.309.657-.693 1.241-1.151 1.764a.87.87 0 0 0-.258-.117c-.252-.061-.584.167-.796.417-.223.267-.292.634-.206.768.08.122.481.428.847.729a16.14 16.14 0 0 1 1.42 1.335 19.9 19.9 0 0 1-1.317 1.736l-.487.017c-.418.022-.624.189-.624.506 0 .495.063.823.189.996.103.134.269.2.504.2l3.641-.44.097.378c.08.323.366.59.882.484.475-.1.704-.451.567-.879l-.882-2.609c-.126-.178-.361-.273-.693-.284-.011 0-.034.006-.069.017.498-.718 1.008-1.569 1.523-2.543v4.63c0 .562.269.907.813.907h.985c-.172.078-.258.217-.258.423v.656H84.7c-.424 0-.572.401-.572.818s.143.818.572.818h5.438c-1.156.968-2.908 1.797-5.61 2.715-.527.178-.544.757-.412 1.241.212.762.721.729 1.122.579 2.473-.918 4.671-2.131 6.011-3.288v2.904c0 .412.424.584.847.584.429 0 .847-.167.847-.584v-2.955c.183.184 1.299 1.074 2.152 1.547 1.855 1.024 3.853 1.758 4.007 1.803.269.083.836.006 1.064-.479.166-.367.275-1.13-.326-1.313zm-5.364-9.948c.023.022 1.305 1.007 1.803 1.463-.452.651-.91 1.246-1.385 1.786h-.258a.82.82 0 0 0-.154.017V6.118h-.006zM86.96 9.162l.641-.79c.011.145.195.601.24.757l-.882.033zm4.185-3.906c0-.2.109-.3.326-.3h1.231c.218 0 .326.1.326.3v1.013h-1.889V5.256h.006zm.332 3.989c-.217 0-.326-.1-.326-.3v-1.33h1.889v1.33c0 .2-.109.3-.326.3h-1.237z"/></svg>